<?xml version="1.0" encoding="UTF-8" standalone="no"?><!DOCTYPE svg PUBLIC "-//W3C//DTD SVG 1.1//EN" "http://www.w3.org/Graphics/SVG/1.1/DTD/svg11.dtd"><svg width="100%" height="100%" viewBox="0 0 4167 4167" version="1.1" xmlns="http://www.w3.org/2000/svg" xmlns:xlink="http://www.w3.org/1999/xlink" xml:space="preserve" xmlns:serif="http://www.serif.com/" style="fill-rule:evenodd;clip-rule:evenodd;stroke-linecap:round;stroke-linejoin:round;stroke-miterlimit:1.5;"><circle cx="2103.31" cy="2083.33" r="1945.55" style="fill:#222;"/><g><g><path d="M1160.31,3200.57c-156.869,17.808 -291.792,174.507 -328.911,74.943c-50.771,-136.184 -27.733,-606.426 -55.921,-908.789c-29.345,-314.782 -240.864,-925.896 -176.073,-977.669c99.18,-79.254 599.221,-224.586 977.721,-254.921c463.907,-37.18 1222.95,-98.533 1496.95,31.842c96.805,46.061 -38.487,616.171 3.472,902.832c41.622,284.364 283.951,684.671 248.281,819.408c-32.914,124.325 -306.826,78.817 -468.43,98.541c-403.661,49.269 -1230.93,160.893 -1697.09,213.813Z" style="fill:#00857d;"/><path d="M1508.39,1353.7c12.006,-148.968 36.016,-446.902 130.035,-579.183c47.01,-66.143 149.417,-96.228 246.219,-89.947c75.834,4.921 148.228,32.16 187.857,81.866c95.255,119.48 123.388,385.517 137.455,518.536" style="fill:none;stroke:#fff;stroke-width:29.17px;"/><g><circle cx="1508.39" cy="1353.7" r="68.728" style="fill:#fff;"/><circle cx="2209.96" cy="1284.98" r="68.728" style="fill:#fff;"/></g></g><g><path d="M2679.98,1407.42c221.949,13.242 368.627,25.964 579.316,96.46c180.604,60.429 531.201,210.361 531.201,210.361l-192.596,213.741l250.707,75.261c-0,0 -210.111,305.01 -390.827,465.707c-110.111,97.913 -284.075,203.644 -446.885,250.961c-203.746,59.213 -262.019,-139.328 -321.447,-264.784c-86.98,-183.623 -154.929,-438.403 -170.951,-623.921c-13.612,-157.619 -69.977,-437.596 161.482,-423.786Z" style="fill:#ff8c81;"/><path d="M3355.74,2021.07c3.69,102.006 -76.131,187.818 -178.137,191.507c-102.006,3.69 -187.817,-76.131 -191.507,-178.137c-3.689,-102.006 76.132,-187.817 178.138,-191.507c102.006,-3.689 187.817,76.131 191.506,178.137Zm-77.976,-9.403c1.473,40.708 -30.382,74.954 -71.09,76.426c-40.709,1.472 -74.954,-30.382 -76.426,-71.091c-1.473,-40.708 30.382,-74.953 71.09,-76.426c40.709,-1.472 74.954,30.383 76.426,71.091Z" style="fill:#fff;"/></g><g transform="matrix(2.98853,-0.44309,0.44309,2.98853,-103.184,1528.12)"><g transform="matrix(0.958912,-0.283703,0.283703,0.958912,-88.4735,128.333)"><text x="398.82px" y="369.613px" style="font-family:'MyriadArabic-BoldIt', 'Myriad Arabic';font-weight:700;font-style:italic;font-size:147.568px;fill:#fff;">F</text></g><g transform="matrix(0.964234,-0.265053,0.265053,0.964234,-77.9923,131.685)"><text x="448.944px" y="354.832px" style="font-family:'MyriadArabic-BoldIt', 'Myriad Arabic';font-weight:700;font-style:italic;font-size:147.568px;fill:#fff;">i</text></g><g transform="matrix(0.970374,-0.241609,0.241609,0.970374,-69.8253,125.232)"><text x="475.736px" y="347.337px" style="font-family:'MyriadArabic-BoldIt', 'Myriad Arabic';font-weight:700;font-style:italic;font-size:147.568px;fill:#fff;">s</text></g><g transform="matrix(0.984549,-0.175112,0.175112,0.984549,-50.8947,95.9285)"><text x="518.134px" y="336.36px" style="font-family:'MyriadArabic-BoldIt', 'Myriad Arabic';font-weight:700;font-style:italic;font-size:147.568px;fill:#fff;">h</text></g><g transform="matrix(0.998918,-0.0465002,0.0465002,0.998918,-14.5559,27.1727)"><text x="576.762px" y="326.446px" style="font-family:'MyriadArabic-BoldIt', 'Myriad Arabic';font-weight:700;font-style:italic;font-size:147.568px;fill:#fff;">e</text></g><g transform="matrix(0.999822,0.0188635,-0.0188635,0.999822,6.23073,-11.8214)"><text x="629.742px" y="324.365px" style="font-family:'MyriadArabic-BoldIt', 'Myriad Arabic';font-weight:700;font-style:italic;font-size:147.568px;fill:#fff;">l</text></g><g transform="matrix(0.998502,0.0547074,-0.0547074,0.998502,18.7551,-35.4927)"><text x="657.665px" y="324.822px" style="font-family:'MyriadArabic-BoldIt', 'Myriad Arabic';font-weight:700;font-style:italic;font-size:147.568px;fill:#fff;">l</text></g><g transform="matrix(0.995008,0.0997998,-0.0997998,0.995008,35.9559,-66.7699)"><text x="685.346px" y="325.996px" style="font-family:'MyriadArabic-BoldIt', 'Myriad Arabic';font-weight:700;font-style:italic;font-size:147.568px;fill:#fff;">e</text></g><g transform="matrix(0.974713,0.223462,-0.223462,0.974713,92.7989,-156.512)"><text x="737.941px" y="331.773px" style="font-family:'MyriadArabic-BoldIt', 'Myriad Arabic';font-weight:700;font-style:italic;font-size:147.568px;fill:#fff;">r</text></g></g><path d="M1415.57,2549.98c10.539,54.794 31.617,164.381 -11.726,226.204c-50.167,71.558 -209.574,159.282 -289.277,203.145" style="fill:none;stroke:#fff;stroke-width:29.17px;"/><path d="M1908.76,2372.69c11.511,54.598 34.533,163.793 -7.704,226.376c-48.887,72.439 -206.71,162.983 -285.621,208.255" style="fill:none;stroke:#fff;stroke-width:29.17px;"/><path d="M2347.53,2353.34c7.368,55.309 22.103,165.928 -24.725,225.154c-54.203,68.552 -218.394,146.957 -300.49,186.159" style="fill:none;stroke:#fff;stroke-width:29.17px;"/><path d="M2291.16,1887.94c-3.012,-55.716 -9.036,-167.149 -66.031,-216.669c-65.97,-57.317 -241.85,-103.929 -329.789,-127.234" style="fill:none;stroke:#fff;stroke-width:29.17px;"/><path d="M1812,1887.71c-16.297,-53.365 -48.891,-160.095 -116.106,-194.487c-77.799,-39.808 -259.724,-42.843 -350.687,-44.36" style="fill:none;stroke:#fff;stroke-width:29.17px;"/><path d="M1356.21,1983.57c-23.401,-50.654 -70.205,-151.961 -141.471,-176.894c-82.489,-28.86 -263.138,-7.13 -353.462,3.734" style="fill:none;stroke:#fff;stroke-width:29.17px;"/></g></svg>