<?xml version="1.0" encoding="UTF-8" standalone="no"?><!DOCTYPE svg PUBLIC "-//W3C//DTD SVG 1.1//EN" "http://www.w3.org/Graphics/SVG/1.1/DTD/svg11.dtd"><svg width="100%" height="100%" viewBox="0 0 1323 907" version="1.1" xmlns="http://www.w3.org/2000/svg" xmlns:xlink="http://www.w3.org/1999/xlink" xml:space="preserve" xmlns:serif="http://www.serif.com/" style="fill-rule:evenodd;clip-rule:evenodd;stroke-linejoin:round;stroke-miterlimit:2;"><rect x="0" y="0" width="1322.89" height="906.52" style="fill:none;"/><clipPath id="_clip1"><rect x="0" y="0" width="1322.89" height="906.52"/></clipPath><g clip-path="url(#_clip1)"><path d="M1581.2,1027.72c-175.323,189.045 -476.007,-572.344 -783.911,-730.459c-358.296,-183.992 -716.27,-467.739 -682.002,-735.454c34.269,-267.714 577.504,-1018.57 904.151,-909.016c366.554,122.935 1349.11,1098.38 1468.47,1468.47c108.839,337.458 -716.337,701.192 -906.706,906.461Z" style="fill:#2e2e2e;fill-opacity:0.9;"/><path d="M1228.59,509.416c-172.3,119.334 -244.415,-161.338 -493.715,-232.032c-245.105,-69.504 -635.91,-4.193 -713.905,-190.593c-77.994,-186.4 -6.851,-876.563 245.939,-927.808c283.673,-57.505 1285.85,207.132 1501.77,402.397c196.886,178.05 -367.785,828.702 -540.085,948.036Z" style="fill:#2e2e2e;fill-opacity:0.9;"/></g></svg>