<?xml version="1.0" encoding="UTF-8" standalone="no"?><!DOCTYPE svg PUBLIC "-//W3C//DTD SVG 1.1//EN" "http://www.w3.org/Graphics/SVG/1.1/DTD/svg11.dtd"><svg width="100%" height="100%" viewBox="0 0 2448 2617" version="1.1" xmlns="http://www.w3.org/2000/svg" xmlns:xlink="http://www.w3.org/1999/xlink" xml:space="preserve" xmlns:serif="http://www.serif.com/" style="fill-rule:evenodd;clip-rule:evenodd;stroke-linejoin:round;stroke-miterlimit:2;"><g><path d="M189.64,314.167c181.05,-213.534 740.034,-222.499 1086.13,-217.475c340.268,4.939 825.356,34.083 990.427,247.617c165.071,213.534 308.439,880.076 -0,1033.59c-346.121,172.264 -1730.63,177.288 -2076.73,-0c-315.58,-161.659 -180.877,-850.195 0.173,-1063.73Z" style="fill:#00857d;fill-opacity:0.7;"/><path d="M189.64,95.793c181.05,-213.534 740.034,-4.125 1086.13,0.899c340.268,4.939 821.915,-214.433 986.986,-0.899c165.071,213.534 311.88,1128.59 3.441,1282.1c-346.121,172.264 -1730.63,177.288 -2076.73,-0c-315.58,-161.659 -180.877,-1068.57 0.173,-1282.1Z" style="fill:#00857d;fill-opacity:0.7;"/><path d="M189.64,278.531c181.05,-213.534 740.034,-4.125 1086.13,0.899c340.268,4.939 821.915,-214.433 986.986,-0.899c165.071,213.534 311.88,1128.59 3.441,1282.1c-346.121,172.264 -1730.63,177.288 -2076.73,-0c-315.58,-161.659 -180.877,-1068.57 0.173,-1282.1Z" style="fill:#00857d;fill-opacity:0.9;"/><rect x="68.362" y="1093.98" width="2347.92" height="1522.03" style="fill:#03847d;"/></g></svg>