<?xml version="1.0" encoding="UTF-8" standalone="no"?><!DOCTYPE svg PUBLIC "-//W3C//DTD SVG 1.1//EN" "http://www.w3.org/Graphics/SVG/1.1/DTD/svg11.dtd"><svg width="100%" height="100%" viewBox="0 0 416 416" version="1.1" xmlns="http://www.w3.org/2000/svg" xmlns:xlink="http://www.w3.org/1999/xlink" xml:space="preserve" xmlns:serif="http://www.serif.com/" style="fill-rule:evenodd;clip-rule:evenodd;stroke-linejoin:round;stroke-miterlimit:2;"><clipPath id="_clip1"><rect x="0" y="0" width="415.185" height="415.185"/></clipPath><g clip-path="url(#_clip1)"><path d="M354.637,345.987c-0.969,0 -1.92,-0.155 -2.854,-0.484l-345.988,-121.096c-3.252,-1.124 -5.518,-4.1 -5.778,-7.542c-0.242,-3.443 1.575,-6.712 4.637,-8.287l397.885,-207.592c2.906,-1.522 6.383,-1.263 9.048,0.64c2.646,1.903 3.996,5.155 3.494,8.373l-51.898,328.688c-0.398,2.526 -1.903,4.757 -4.1,6.072c-1.367,0.813 -2.906,1.228 -4.446,1.228Zm-324.277,-131.319l317.357,111.079l47.608,-301.493l-364.965,190.414Z" style="fill:#00847c;fill-rule:nonzero;"/><path d="M164.344,397.885c-0.865,0 -1.747,-0.138 -2.595,-0.397c-3.598,-1.142 -6.055,-4.481 -6.055,-8.252l0,-121.096c0,-2.197 0.831,-4.307 2.336,-5.899l242.191,-259.49c3.269,-3.478 8.753,-3.668 12.213,-0.416c3.495,3.253 3.685,8.737 0.415,12.214l-239.855,256.999l-0,90.286l50.998,-72.71c2.733,-3.927 8.183,-4.861 12.041,-2.11c3.909,2.733 4.861,8.13 2.11,12.04l-66.724,95.147c-1.643,2.352 -4.307,3.684 -7.075,3.684Z" style="fill:#00847c;fill-rule:nonzero;"/></g></svg>