<?xml version="1.0" encoding="UTF-8" standalone="no"?><!DOCTYPE svg PUBLIC "-//W3C//DTD SVG 1.1//EN" "http://www.w3.org/Graphics/SVG/1.1/DTD/svg11.dtd"><svg width="100%" height="100%" viewBox="0 0 364 364" version="1.1" xmlns="http://www.w3.org/2000/svg" xmlns:xlink="http://www.w3.org/1999/xlink" xml:space="preserve" xmlns:serif="http://www.serif.com/" style="fill-rule:evenodd;clip-rule:evenodd;stroke-linejoin:round;stroke-miterlimit:2;"><g><g><path d="M116.792,140.496c-8.032,-0 -14.567,6.535 -14.567,14.568c-0,8.032 6.535,14.567 14.567,14.567c8.033,0 14.568,-6.535 14.568,-14.567c0,-8.033 -6.535,-14.568 -14.568,-14.568Zm0,17.929c-1.853,0 -3.361,-1.508 -3.361,-3.361c-0,-1.854 1.508,-3.362 3.361,-3.362c1.854,-0 3.362,1.508 3.362,3.362c0,1.853 -1.508,3.361 -3.362,3.361Z" style="fill:#00847c;fill-rule:nonzero;"/></g></g><g><g><path d="M360.168,0.427c-2.885,-1.118 -6.131,0.316 -7.247,3.203c-1.591,4.108 -14.089,37.599 -27.361,75.084c-2.753,-0.628 -5.614,-0.971 -8.555,-0.971c-21.214,0 -38.474,17.259 -38.474,38.474c0,15.585 9.321,29.026 22.676,35.066c-0.551,1.83 -1.069,3.583 -1.539,5.218c-14.663,50.899 -31.702,58.184 -36.574,59.204c-4.199,0.884 -7.916,-0.581 -11.039,-4.34c-6.108,-7.353 -9.21,-23.699 -1.586,-42.215c12.138,-29.478 30.955,-82.479 20.603,-106.25c-2.503,-5.746 -6.494,-9.682 -11.863,-11.695c-15.799,-5.925 -33.562,6.42 -52.793,36.69c-9.585,15.087 -17.082,30.715 -20.704,38.702c-23.145,-10.016 -54.831,-10.347 -86.245,-0.657c-37.155,11.459 -67.502,35.285 -83.26,65.37c-18.717,35.73 -21.388,75.564 -7.147,106.556c11.932,25.968 34.887,44.05 64.637,50.915c7.346,1.696 14.753,2.391 21.973,2.391c25.816,-0.001 49.192,-8.91 58.392,-12.912c13.284,15.069 32.979,23.764 57.272,25.222c2.567,0.154 5.061,0.221 7.463,0.221c15.67,0 27.29,-2.853 27.849,-2.992c4.281,-1.071 5.669,-6.686 2.363,-9.624c-22.86,-20.32 -49.528,-38.218 -57.884,-43.684l0,-38.787c0,-3.819 -3.922,-6.574 -7.518,-5.266c-27.841,10.124 -36.201,33.586 -38.605,44.218l-40.113,-2.228l66.6,-126.754c1.44,-2.74 0.386,-6.127 -2.353,-7.566c-2.74,-1.44 -6.127,-0.386 -7.566,2.353l-19.455,37.026c-0.173,0.028 -0.346,0.061 -0.519,0.106c-4.398,1.133 -8.956,1.707 -13.544,1.707c-29.866,-0 -54.162,-24.297 -54.162,-54.162c-0,-1.605 0.06,-3.215 0.211,-4.813c0.144,-1.524 0.555,-3.046 0.436,-4.585c8.75,-4.863 18.215,-8.916 28.231,-12.005c28.287,-8.725 57.555,-8.613 78.072,0.048l-9.937,18.914c-1.439,2.739 -0.386,6.126 2.354,7.566c2.739,1.439 6.125,0.385 7.565,-2.354c0,0 22.183,-46.664 35.051,-66.919c15.545,-24.466 29.537,-35.9 39.399,-32.205c2.489,0.933 4.245,2.737 5.525,5.677c6.263,14.382 -1.473,50.834 -20.691,97.509c-8.174,19.85 -6.835,41.408 3.329,53.642c5.383,6.478 13.59,9.901 21.956,8.147c17.653,-3.696 33.65,-27.515 45.045,-67.069c0.473,-1.64 0.995,-3.405 1.551,-5.251c1.644,0.216 3.317,0.338 5.018,0.338c21.214,-0 38.474,-17.259 38.474,-38.474c-0,-14.305 -7.854,-26.804 -19.471,-33.432c13.274,-37.506 25.778,-71.015 27.363,-75.11c1.116,-2.886 -0.317,-6.13 -3.203,-7.247Zm-232.117,222.993c2.495,-0 4.982,-0.149 7.449,-0.429l-44.585,84.855c-0.887,1.687 -0.855,3.711 0.086,5.37c0.941,1.658 2.659,2.724 4.563,2.83l53.788,2.988c2.987,0.161 5.597,-2.079 5.889,-5.068c0.107,-1.089 2.656,-24.447 24.678,-36.671l0,33.157c0,1.915 0.979,3.698 2.595,4.727c0.288,0.184 25.904,16.549 49.999,36.525c-17.929,1.992 -52.669,1.943 -72.432,-23.751c-1.636,-2.126 -4.549,-2.794 -6.947,-1.595c-0.401,0.201 -40.454,19.921 -76.916,11.505c-26.673,-6.155 -46.375,-21.603 -56.976,-44.674c-12.802,-27.86 -10.226,-64.001 6.891,-96.678c8.217,-15.687 20.862,-29.528 36.589,-40.491c-0.02,0.678 -0.038,1.355 -0.038,2.032c-0,36.044 29.323,65.368 65.367,65.368Zm188.953,-79.936c-13.376,0 -24.526,-9.685 -26.825,-22.409l42.092,17.723c-4.359,2.957 -9.614,4.686 -15.267,4.686Zm27.069,-24.033c-0.456,3.847 -1.715,7.45 -3.607,10.639l-49.789,-20.963c1,-3.707 2.761,-7.102 5.108,-10.008l48.288,20.332Zm-1.54,-12.807l-36.516,-15.375c3.364,-1.487 7.079,-2.319 10.987,-2.319c11.669,-0.002 21.644,7.367 25.529,17.694Z" style="fill:#00847c;fill-rule:nonzero;"/></g></g><g><g><path d="M62.645,222.427c-2.46,-1.876 -5.975,-1.405 -7.853,1.055c-3.124,4.093 -8.996,4.881 -13.089,1.759c-4.092,-3.124 -4.882,-8.996 -1.758,-13.09c1.877,-2.46 1.405,-5.975 -1.056,-7.853c-2.459,-1.879 -5.975,-1.406 -7.853,1.055c-6.872,9.006 -5.137,21.923 3.868,28.795c3.715,2.836 8.093,4.205 12.44,4.205c6.191,-0 12.318,-2.783 16.355,-8.073c1.878,-2.459 1.406,-5.975 -1.054,-7.853Z" style="fill:#00847c;fill-rule:nonzero;"/></g></g><g><g><path d="M104.482,249.32c-2.46,-1.878 -5.976,-1.405 -7.854,1.055c-3.124,4.092 -8.995,4.881 -13.088,1.758c-4.093,-3.124 -4.882,-8.996 -1.759,-13.089c1.878,-2.46 1.405,-5.976 -1.055,-7.853c-2.46,-1.879 -5.976,-1.406 -7.854,1.055c-6.871,9.005 -5.136,21.923 3.869,28.796c3.715,2.833 8.093,4.203 12.44,4.203c6.192,0 12.318,-2.781 16.355,-8.073c1.878,-2.458 1.405,-5.974 -1.054,-7.852Z" style="fill:#00847c;fill-rule:nonzero;"/></g></g><g><g><path d="M68.696,267.35c-2.459,-1.878 -5.975,-1.405 -7.853,1.055c-1.513,1.983 -3.708,3.258 -6.18,3.591c-2.473,0.328 -4.926,-0.319 -6.909,-1.832c-4.093,-3.123 -4.882,-8.995 -1.757,-13.089c1.877,-2.46 1.404,-5.975 -1.056,-7.853c-2.46,-1.879 -5.976,-1.406 -7.853,1.055c-6.873,9.005 -5.137,21.922 3.868,28.794c3.714,2.836 8.093,4.205 12.44,4.205c6.192,-0 12.318,-2.782 16.355,-8.073c1.879,-2.46 1.406,-5.976 -1.055,-7.853Z" style="fill:#00847c;fill-rule:nonzero;"/></g></g><g><g><path d="M193.995,4.163c-15.406,-5.24 -32.2,3.035 -37.436,18.443c-4.579,13.471 5.164,49.259 7.164,56.295c0.503,1.77 1.843,3.181 3.586,3.773c1.726,0.589 3.679,0.28 5.143,-0.807c5.874,-4.361 35.407,-26.798 39.985,-40.27c5.237,-15.405 -3.036,-32.199 -18.442,-37.434Zm7.833,33.828l-0.001,0.001c-2.249,6.62 -17.284,20.132 -29.46,29.803c-3.888,-15.642 -7.349,-35.255 -5.199,-41.583c2.304,-6.777 8.551,-11.681 15.675,-12.338c2.543,-0.234 5.127,0.076 7.544,0.898c9.557,3.248 14.688,13.664 11.441,23.219Z" style="fill:#00847c;fill-rule:nonzero;"/></g></g><g><g><path d="M295.522,258.149c-13.535,-4.387 -49.18,5.859 -56.189,7.957c-3.688,1.105 -5.186,5.707 -2.844,8.771c4.444,5.811 27.296,35.024 40.83,39.414l0.001,-0c3.013,0.976 6.07,1.44 9.079,1.44c12.447,0 24.05,-7.947 28.093,-20.411c5.017,-15.477 -3.493,-32.152 -18.97,-37.171Zm8.31,33.715c-3.113,9.601 -13.454,14.879 -23.056,11.767l0.001,-0c-6.651,-2.157 -20.373,-16.998 -30.216,-29.037c15.585,-4.108 35.147,-7.85 41.506,-5.784c9.599,3.111 14.877,13.455 11.765,23.054Z" style="fill:#00847c;fill-rule:nonzero;"/></g></g><g><g><path d="M79.909,106.377c-1.143,-7.226 -7.337,-43.795 -17.153,-54.096c-11.223,-11.779 -29.94,-12.229 -41.72,-1.007c-11.78,11.224 -12.231,29.939 -1.006,41.72c9.815,10.301 46.041,18.254 53.203,19.744c3.773,0.783 7.276,-2.555 6.676,-6.361Zm-51.767,-21.114c-6.962,-7.307 -6.682,-18.915 0.624,-25.876c3.537,-3.372 8.083,-5.044 12.623,-5.044c4.836,0 9.664,1.899 13.255,5.668c4.824,5.062 9.828,24.648 12.755,39.92c-15.112,-3.659 -34.433,-9.605 -39.257,-14.668Z" style="fill:#00847c;fill-rule:nonzero;"/></g></g></svg>